# xmcd CD database file
#
# Track frame offsets:
#	150
#	12987
#	23432
#	36267
#	50270
#	60969
#	72050
#	86521
#	104056
#	119585
#	129769
#	146168
#	152397
#	171305
#	223315
#	236764
#
# Disc length: 3420 seconds
#
# Revision: 0
# Processed by: cddbd v1.5.2PL0 Copyright (c) Steve Scherf et al.
# Submitted via: CDex 1.51
#
DISCID=d80d5a10
DTITLE=Blues Max and der Rolf - Bonus
DYEAR=2009
DGENRE=Blues
TTITLE0=klaut
TTITLE1=Bonus
TTITLE2=wägem Gäld
TTITLE3=Servila
TTITLE4=Automa
TTITLE5=Bonus ha
TTITLE6=nüt mitnäh
TTITLE7=Grätli
TTITLE8=Sunntigsbrate
TTITLE9=Lecker
TTITLE10=si si si
TTITLE11=Maschine
TTITLE12=Wendelin
TTITLE13=Mukermäntig
TTITLE14=nüme weh
TTITLE15=ohni Pause
EXTD=YEAR: 2009
EXTT0=
EXTT1=
EXTT2=
EXTT3=
EXTT4=
EXTT5=
EXTT6=
EXTT7=
EXTT8=
EXTT9=
EXTT10=
EXTT11=
EXTT12=
EXTT13=
EXTT14=
EXTT15=
PLAYORDER=
